<?xml version="1.0" encoding="UTF-8" standalone="no"?>
<svg
   version="1.0"
   width="7mm"
   height="9mm"
   id="svg11"
   xmlns="http://www.w3.org/2000/svg"
   xmlns:svg="http://www.w3.org/2000/svg">
  <defs
     id="defs3">
    <pattern
       id="EMFhbasepattern"
       patternUnits="userSpaceOnUse"
       width="6"
       height="6"
       x="0"
       y="0" />
  </defs>
  <path
     style="fill:#ffffff;fill-rule:nonzero;fill-opacity:1;stroke:none;"
     d="  M 12.479908,0   C 5.5999585,0 0,5.5199591 0,12.319909   C 0,15.679884 1.4399893,18.87986 3.8399716,21.199843   L 11.439915,31.599766   L 12.479908,33.039755   L 13.5199,31.599766   L 21.119844,21.199843   C 23.599825,18.87986 24.959815,15.679884 24.959815,12.319909   C 25.039815,5.5199591 19.359857,0 12.479908,0   z "
     id="path5" />
  <path
     style="fill:#31a6d0;fill-rule:nonzero;fill-opacity:1;stroke:none;"
     d="  M 4.7999644,20.399849   L 12.479908,30.879771   L 20.159851,20.399849   C 22.399834,18.319864 23.759824,15.519885 23.759824,12.319909   C 23.759824,6.1599544 18.719861,1.1999911 12.479908,1.1999911   C 6.3199532,1.1999911 1.2799905,6.1599544 1.2799905,12.319909   C 1.2799905,15.519885 2.6399804,18.319864 4.7999644,20.399849   z "
     id="path7" />
  <path
     style="fill:#ffffff;fill-rule:nonzero;fill-opacity:1;stroke:none;"
     d="  M 17.439871,12.15991   C 17.039874,12.319909 16.639877,12.719906 16.399879,13.119903   L 13.919897,12.15991   C 13.999896,11.839912 13.919897,11.519915 13.839897,11.199917   C 13.679899,10.879919 13.4399,10.559922 13.119903,10.399923   L 13.919897,8.1599396   C 14.239895,8.239939 14.559892,8.239939 14.87989,8.0799401   C 15.519885,7.8399419 15.839883,7.0399479 15.599884,6.3999526   C 15.279887,5.6799579 14.479893,5.3599603 13.839897,5.6799579   C 13.119903,5.9999556 12.879905,6.7999496 13.119903,7.4399449   C 13.279902,7.6799431 13.4399,7.8399419 13.599899,7.9999407   L 12.719906,10.239924   C 12.319909,10.159925 11.919912,10.159925 11.599914,10.319924   C 11.279916,10.479922 10.959919,10.719921 10.79992,11.039918   L 8.5599366,10.239924   C 8.5599366,9.9999259 8.4799372,9.7599277 8.3999378,9.5199295   C 8.1599396,8.8799342 7.3599455,8.5599366 6.6399508,8.7999348   C 5.9999556,9.1199324 5.6799579,9.9199265 5.9999556,10.559922   C 6.3199532,11.279916 7.0399479,11.519915 7.7599425,11.279916   C 8.0799401,11.119918 8.3199384,10.879919 8.3999378,10.559922   L 10.639921,11.519915   C 10.559922,11.839912 10.559922,12.15991 10.719921,12.559907   C 10.879919,12.879905 11.119918,13.119903 11.439915,13.279902   L 10.399923,15.759883   C 9.9199265,15.679884 9.4399301,15.679884 8.9599336,15.919882   C 7.8399419,16.399879 7.3599455,17.679869 7.8399419,18.799861   C 8.3199384,19.919852 9.6799283,20.479848 10.79992,19.919852   C 11.919912,19.439856 12.399908,18.159865 11.919912,17.039874   C 11.679913,16.639877 11.439915,16.319879 11.039918,16.079881   L 11.999911,13.5199   C 12.319909,13.5199 12.639906,13.5199 12.959904,13.359901   C 13.279902,13.279902 13.5199,13.039903 13.679899,12.719906   L 16.15988,13.759898   C 16.079881,14.159895 16.15988,14.639892 16.319879,15.039889   C 16.879875,16.15988 18.159865,16.719876 19.279857,16.15988   C 20.399849,15.679884 20.879845,14.399893 20.399849,13.279902   C 19.919852,12.15991 18.559863,11.679913 17.439871,12.15991   z "
     id="path9" />
</svg>
