<?xml version="1.0" encoding="UTF-8" standalone="no"?>
<svg
   version="1.0"
   width="7mm"
   height="9mm"
   id="svg19"
   xmlns="http://www.w3.org/2000/svg"
   xmlns:svg="http://www.w3.org/2000/svg">
  <defs
     id="defs3">
    <pattern
       id="EMFhbasepattern"
       patternUnits="userSpaceOnUse"
       width="6"
       height="6"
       x="0"
       y="0" />
  </defs>
  <path
     style="fill:#8dc63f;fill-rule:nonzero;fill-opacity:1;stroke:none;"
     d="  M 4.319968,21.119844   C 1.9999852,18.87986 0.63999526,15.759883 0.63999526,12.479908   C 0.63999526,5.9199561 5.9199561,0.63999526 12.479908,0.63999526   C 19.039859,0.63999526 24.399819,5.9199561 24.399819,12.479908   C 24.399819,15.759883 23.039829,18.87986 20.639847,21.119844   L 12.479908,32.479759   z "
     id="path5" />
  <path
     style="fill:#ffffff;fill-rule:nonzero;fill-opacity:1;stroke:none;"
     d="  M 12.479908,1.2799905   C 18.719861,1.2799905 23.759824,6.3199532 23.759824,12.479908   C 23.759824,15.759883 22.399834,18.639862 20.159851,20.719847   L 12.479908,31.359768   L 4.7999644,20.719847   C 2.6399804,18.639862 1.2799905,15.759883 1.2799905,12.479908   C 1.2799905,6.3199532 6.3199532,1.2799905 12.479908,1.2799905   z  M 12.479908,0   C 5.5999585,0 0,5.5999585 0,12.479908   C 0,15.919882 1.4399893,19.199858 3.8399716,21.519841   L 11.439915,32.079762   L 12.479908,33.519752   L 13.5199,32.079762   L 21.119844,21.519841   C 23.599825,19.199858 25.039815,15.919882 25.039815,12.479908   C 25.039815,5.5999585 19.359857,0 12.479908,0   z "
     id="path7" />
  <path
     style="fill:#ffffff;fill-rule:nonzero;fill-opacity:1;stroke:none;"
     d="  M 19.599855,13.999896   C 19.599855,16.319879 17.679869,18.239865 15.279887,18.239865   C 12.959904,18.239865 11.039918,16.319879 11.039918,13.999896   C 11.039918,11.599914 12.959904,9.6799283 15.279887,9.6799283   C 17.679869,9.6799283 19.599855,11.599914 19.599855,13.999896   z "
     id="path9" />
  <path
     style="fill:#ffffff;fill-rule:nonzero;fill-opacity:1;stroke:none;"
     d="  M 13.4399,14.639892   C 13.4399,16.799876 11.759913,18.479863 9.5999289,18.479863   C 7.5199443,18.479863 5.8399567,16.799876 5.8399567,14.639892   C 5.8399567,12.559907 7.5199443,10.879919 9.5999289,10.879919   C 11.759913,10.879919 13.4399,12.559907 13.4399,14.639892   z "
     id="path11" />
  <path
     style="fill:#ffffff;fill-rule:nonzero;fill-opacity:1;stroke:none;"
     d="  M 12.239909,9.9199265   C 12.239909,11.759913 10.79992,13.199902 9.039933,13.199902   C 7.2799461,13.199902 5.8399567,11.759913 5.8399567,9.9199265   C 5.8399567,8.1599396 7.2799461,6.7199502 9.039933,6.7199502   C 10.79992,6.7199502 12.239909,8.1599396 12.239909,9.9199265   z "
     id="path13" />
  <path
     style="fill:#ffffff;fill-rule:nonzero;fill-opacity:1;stroke:none;"
     d="  M 17.359871,8.639936   C 17.359871,10.719921 15.679884,12.319909 13.679899,12.319909   C 11.599914,12.319909 9.9199265,10.719921 9.9199265,8.639936   C 9.9199265,6.5599514 11.599914,4.9599633 13.679899,4.9599633   C 15.679884,4.9599633 17.359871,6.5599514 17.359871,8.639936   z "
     id="path15" />
  <path
     style="fill:#ffffff;fill-rule:nonzero;fill-opacity:1;stroke:none;"
     d="  M 11.119918,17.199873   L 13.359901,17.199873   L 13.359901,23.039829   L 11.119918,23.039829   z "
     id="path17" />
</svg>
