<?xml version="1.0" encoding="UTF-8" standalone="no"?>
<svg
   version="1.0"
   width="7mm"
   height="9mm"
   id="svg13"
   xmlns="http://www.w3.org/2000/svg"
   xmlns:svg="http://www.w3.org/2000/svg">
  <defs
     id="defs3">
    <pattern
       id="EMFhbasepattern"
       patternUnits="userSpaceOnUse"
       width="6"
       height="6"
       x="0"
       y="0" />
  </defs>
  <path
     style="fill:#ffffff;fill-rule:nonzero;fill-opacity:1;stroke:none;"
     d="  M 12.479908,0   C 5.5999585,0 0,5.5199591 0,12.319909   C 0,15.679884 1.4399893,18.87986 3.8399716,21.199843   L 11.439915,31.599766   L 12.479908,33.039755   L 13.5199,31.599766   L 21.119844,21.199843   C 23.599825,18.87986 25.039815,15.679884 25.039815,12.319909   C 25.039815,5.5199591 19.359857,0 12.479908,0   z "
     id="path5" />
  <path
     style="fill:#2c8344;fill-rule:nonzero;fill-opacity:1;stroke:none;"
     d="  M 4.7999644,20.399849   L 12.479908,30.879771   L 20.159851,20.399849   C 22.399834,18.319864 23.759824,15.519885 23.759824,12.319909   C 23.759824,6.1599544 18.719861,1.1999911 12.479908,1.1999911   C 6.3199532,1.1999911 1.2799905,6.1599544 1.2799905,12.319909   C 1.2799905,15.519885 2.6399804,18.319864 4.7999644,20.399849   z "
     id="path7" />
  <path
     style="fill:#ffffff;fill-rule:nonzero;fill-opacity:1;stroke:none;"
     d="  M 17.839868,10.239924   L 17.359871,10.239924   L 16.479878,7.8399419   C 16.399879,7.5999437 15.999881,6.5599514 14.399893,6.5599514   L 13.679899,6.5599514   L 11.279916,6.5599514   L 10.639921,6.5599514   C 9.039933,6.5599514 8.639936,7.5999437 8.5599366,7.8399419   L 7.6799431,10.239924   L 7.1999467,10.239924   C 6.7199502,10.239924 6.3199532,10.639921 6.3199532,11.119918   L 6.3199532,13.5199   C 6.3199532,13.999896 6.7199502,14.399893 7.1999467,14.399893   L 17.839868,14.399893   C 18.319864,14.399893 18.719861,13.999896 18.719861,13.5199   L 18.719861,11.119918   C 18.719861,10.639921 18.319864,10.239924 17.839868,10.239924   z  M 9.5199295,8.1599396   C 9.5199295,8.1599396 9.5199295,8.1599396 9.5199295,8.1599396   C 9.5199295,8.0799401 9.6799283,7.5999437 10.639921,7.5999437   L 11.279916,7.5999437   L 13.679899,7.5999437   L 14.399893,7.5999437   C 15.279887,7.5999437 15.439886,8.0799401 15.519885,8.1599396   C 15.519885,8.1599396 15.519885,8.1599396 15.519885,8.1599396   L 16.319879,10.239924   L 8.7199354,10.239924   z  M 8.7199354,13.279902   C 8.1599396,13.279902 7.7599425,12.879905 7.7599425,12.319909   C 7.7599425,11.759913 8.1599396,11.279916 8.7199354,11.279916   C 9.2799313,11.279916 9.7599277,11.759913 9.7599277,12.319909   C 9.7599277,12.879905 9.2799313,13.279902 8.7199354,13.279902   z  M 16.23988,13.279902   C 15.679884,13.279902 15.279887,12.879905 15.279887,12.319909   C 15.279887,11.759913 15.679884,11.279916 16.23988,11.279916   C 16.799876,11.279916 17.279872,11.759913 17.279872,12.319909   C 17.279872,12.879905 16.799876,13.279902 16.23988,13.279902   z "
     id="path9" />
  <path
     style="fill:#ffffff;fill-rule:nonzero;fill-opacity:1;stroke:none;"
     d="  M 18.159865,15.359886   L 6.7999496,15.359886   C 6.5599514,15.359886 6.3199532,15.599884 6.3199532,15.839883   C 6.3199532,16.15988 6.5599514,16.399879 6.7999496,16.399879   L 7.5199443,16.399879   L 7.5199443,17.279872   C 7.5199443,17.759868 7.9199413,18.159865 8.3999378,18.159865   L 9.1199324,18.159865   C 9.5199295,18.159865 9.9199265,17.759868 9.9199265,17.279872   L 9.9199265,16.399879   L 15.039889,16.399879   L 15.039889,17.279872   C 15.039889,17.759868 15.439886,18.159865 15.919882,18.159865   L 16.639877,18.159865   C 17.119873,18.159865 17.439871,17.759868 17.439871,17.279872   L 17.439871,16.399879   L 18.159865,16.399879   C 18.479863,16.399879 18.719861,16.15988 18.719861,15.839883   C 18.719861,15.599884 18.479863,15.359886 18.159865,15.359886   z "
     id="path11" />
</svg>
